<svg xmlns="http://www.w3.org/2000/svg" viewBox="0 0 512 512" width="512" height="512">
  <!-- Martingale-inspired design: branching paths representing probabilistic processes -->
  <defs>
    <linearGradient id="pathGradient" x1="0%" y1="50%" x2="100%" y2="50%">
      <stop offset="0%" style="stop-color:#6366f1;stop-opacity:1" />
      <stop offset="100%" style="stop-color:#8b5cf6;stop-opacity:1" />
    </linearGradient>
  </defs>
  
  <!-- Background -->
  <rect width="512" height="512" fill="#0f0f23"/>
  
  <!-- Martingale branching paths -->
  <!-- Main trunk -->
  <path d="M 80 256 L 180 256" stroke="#6366f1" stroke-width="8" stroke-linecap="round" opacity="0.9"/>
  
  <!-- First branch point -->
  <circle cx="180" cy="256" r="6" fill="#8b5cf6"/>
  <path d="M 180 256 L 280 180" stroke="url(#pathGradient)" stroke-width="6" stroke-linecap="round" opacity="0.8"/>
  <path d="M 180 256 L 280 332" stroke="url(#pathGradient)" stroke-width="6" stroke-linecap="round" opacity="0.8"/>
  
  <!-- Second branch points -->
  <circle cx="280" cy="180" r="5" fill="#8b5cf6" opacity="0.9"/>
  <circle cx="280" cy="332" r="5" fill="#8b5cf6" opacity="0.9"/>
  
  <!-- Upper branches -->
  <path d="M 280 180 L 380 140" stroke="#a78bfa" stroke-width="4" stroke-linecap="round" opacity="0.7"/>
  <path d="M 280 180 L 380 220" stroke="#a78bfa" stroke-width="4" stroke-linecap="round" opacity="0.7"/>
  
  <!-- Lower branches -->
  <path d="M 280 332 L 380 292" stroke="#a78bfa" stroke-width="4" stroke-linecap="round" opacity="0.7"/>
  <path d="M 280 332 L 380 372" stroke="#a78bfa" stroke-width="4" stroke-linecap="round" opacity="0.7"/>
  
  <!-- Terminal points -->
  <circle cx="380" cy="140" r="4" fill="#c4b5fd" opacity="0.8"/>
  <circle cx="380" cy="220" r="4" fill="#c4b5fd" opacity="0.8"/>
  <circle cx="380" cy="292" r="4" fill="#c4b5fd" opacity="0.8"/>
  <circle cx="380" cy="372" r="4" fill="#c4b5fd" opacity="0.8"/>
  
  <!-- Final convergence lines (faint) -->
  <path d="M 380 140 L 432 256" stroke="#e9d5ff" stroke-width="2" stroke-linecap="round" opacity="0.3"/>
  <path d="M 380 220 L 432 256" stroke="#e9d5ff" stroke-width="2" stroke-linecap="round" opacity="0.3"/>
  <path d="M 380 292 L 432 256" stroke="#e9d5ff" stroke-width="2" stroke-linecap="round" opacity="0.3"/>
  <path d="M 380 372 L 432 256" stroke="#e9d5ff" stroke-width="2" stroke-linecap="round" opacity="0.3"/>
  
  <!-- Convergence point -->
  <circle cx="432" cy="256" r="8" fill="#6366f1" opacity="0.9"/>
</svg>